<svg width="19" height="18" viewBox="0 0 19 18" fill="none" xmlns="http://www.w3.org/2000/svg">
<path d="M13.1083 1.48938H5.6611C3.60461 1.48938 1.9375 3.15649 1.9375 5.21298V12.6602C1.9375 14.7167 3.60461 16.3838 5.6611 16.3838H13.1083C15.1648 16.3838 16.8319 14.7167 16.8319 12.6602V5.21298C16.8319 3.15649 15.1648 1.48938 13.1083 1.48938Z" stroke="white" stroke-width="0.714932" stroke-linecap="round" stroke-linejoin="round"/>
<path d="M12.3634 8.46735C12.4553 9.08714 12.3495 9.72013 12.0609 10.2763C11.7723 10.8324 11.3157 11.2834 10.756 11.5651C10.1964 11.8468 9.56211 11.9449 8.9435 11.8454C8.32489 11.7458 7.75342 11.4537 7.31036 11.0107C6.86731 10.5676 6.57525 9.99617 6.4757 9.37756C6.37616 8.75895 6.47421 8.1247 6.75591 7.56503C7.03761 7.00535 7.48861 6.54875 8.04477 6.26018C8.60092 5.9716 9.23392 5.86573 9.85371 5.95764C10.4859 6.05139 11.0712 6.34598 11.5231 6.79791C11.9751 7.24984 12.2697 7.83514 12.3634 8.46735Z" stroke="white" stroke-width="0.714932" stroke-linecap="round" stroke-linejoin="round"/>
<path d="M13.4805 4.8407H13.4892" stroke="white" stroke-width="0.714932" stroke-linecap="round" stroke-linejoin="round"/>
</svg>
