<svg width="20" height="20" viewBox="0 0 20 20" fill="none" xmlns="http://www.w3.org/2000/svg">
<g clip-path="url(#clip0_1_690)">
<path d="M17.4819 8.33325C17.4819 14.1666 9.98764 19.1666 9.98764 19.1666C9.98764 19.1666 2.49341 14.1666 2.49341 8.33325C2.49341 6.34413 3.28298 4.43647 4.68842 3.02995C6.09386 1.62343 8.00005 0.833252 9.98764 0.833252C11.9752 0.833252 13.8814 1.62343 15.2869 3.02995C16.6923 4.43647 17.4819 6.34413 17.4819 8.33325Z" stroke="#17C2EC" stroke-width="2" stroke-linecap="round" stroke-linejoin="round"/>
<path d="M9.9877 10.8333C11.3674 10.8333 12.4858 9.71396 12.4858 8.33325C12.4858 6.95254 11.3674 5.83325 9.9877 5.83325C8.60805 5.83325 7.48962 6.95254 7.48962 8.33325C7.48962 9.71396 8.60805 10.8333 9.9877 10.8333Z" stroke="#17C2EC" stroke-width="2" stroke-linecap="round" stroke-linejoin="round"/>
</g>
<defs>
<clipPath id="clip0_1_690">
<rect width="19.9846" height="20" fill="white" transform="translate(-0.00463867)"/>
</clipPath>
</defs>
</svg>
