<svg width="19" height="18" viewBox="0 0 19 18" fill="none" xmlns="http://www.w3.org/2000/svg">
<g clip-path="url(#clip0_1_939)">
<path d="M18.0244 2.2343C17.3112 2.73734 16.5216 3.12208 15.6859 3.37372C15.2374 2.85801 14.6413 2.49248 13.9783 2.32659C13.3153 2.16069 12.6173 2.20242 11.9788 2.44613C11.3402 2.68985 10.792 3.12379 10.4081 3.68927C10.0242 4.25475 9.82327 4.92448 9.83243 5.60788V6.3526C8.52369 6.38654 7.22686 6.09628 6.05745 5.50768C4.88804 4.91907 3.88235 4.0504 3.12994 2.97902C3.12994 2.97902 0.151061 9.68151 6.85355 12.6604C5.31982 13.7015 3.49274 14.2235 1.6405 14.1498C8.34299 17.8734 16.5349 14.1498 16.5349 5.58554C16.5342 5.3781 16.5143 5.17117 16.4753 4.96742C17.2354 4.21785 17.7718 3.27148 18.0244 2.2343V2.2343Z" stroke="white" stroke-width="0.714932" stroke-linecap="round" stroke-linejoin="round"/>
</g>
<defs>
<clipPath id="clip0_1_939">
<rect width="17.8733" height="17.8733" fill="white" transform="translate(0.895874)"/>
</clipPath>
</defs>
</svg>
