<svg width="18" height="13" viewBox="0 0 18 13" fill="none" xmlns="http://www.w3.org/2000/svg">
<path d="M16.786 2.78098C16.6975 2.42755 16.5173 2.10371 16.2637 1.84219C16.01 1.58067 15.6918 1.39073 15.3412 1.29154C14.0603 0.97876 8.93662 0.97876 8.93662 0.97876C8.93662 0.97876 3.81294 0.97876 2.53202 1.32133C2.18144 1.42052 1.86324 1.61046 1.60957 1.87198C1.35589 2.1335 1.17572 2.45734 1.08726 2.81077C0.852833 4.11072 0.738162 5.42944 0.744688 6.75035C0.736332 8.0812 0.851011 9.40997 1.08726 10.7197C1.18479 11.0622 1.36899 11.3737 1.62208 11.6242C1.87516 11.8746 2.18857 12.0556 2.53202 12.1496C3.81294 12.4921 8.93662 12.4921 8.93662 12.4921C8.93662 12.4921 14.0603 12.4921 15.3412 12.1496C15.6918 12.0504 16.01 11.8604 16.2637 11.5989C16.5173 11.3374 16.6975 11.0136 16.786 10.6601C17.0186 9.36997 17.1333 8.0613 17.1286 6.75035C17.1369 5.4195 17.0222 4.09072 16.786 2.78098V2.78098Z" stroke="white" stroke-width="0.714932" stroke-linecap="round" stroke-linejoin="round"/>
</svg>
