<svg width="15" height="30" viewBox="0 0 15 30" fill="none" xmlns="http://www.w3.org/2000/svg">
<path d="M10.4741 18.45V4.375C10.4741 3.5462 10.1642 2.75134 9.6125 2.16529C9.0608 1.57924 8.31254 1.25 7.53232 1.25C6.7521 1.25 6.00384 1.57924 5.45215 2.16529C4.90045 2.75134 4.59051 3.5462 4.59051 4.375V18.45C3.64593 19.1204 2.92935 20.0958 2.54662 21.232C2.16389 22.3682 2.1353 23.6051 2.46506 24.7599C2.79482 25.9147 3.46546 26.9262 4.37792 27.6451C5.29038 28.364 6.39629 28.7521 7.53232 28.7521C8.66835 28.7521 9.77426 28.364 10.6867 27.6451C11.5992 26.9262 12.2698 25.9147 12.5996 24.7599C12.9293 23.6051 12.9007 22.3682 12.518 21.232C12.1353 20.0958 11.4187 19.1204 10.4741 18.45Z" stroke="white" stroke-width="2.99376" stroke-linecap="round" stroke-linejoin="round"/>
</svg>
